<svg width="75" height="75" viewBox="0 0 75 75" fill="none" xmlns="http://www.w3.org/2000/svg">
  <path d="M15 45H60C60 45 63.75 45 63.75 41.25V33.75C63.75 33.75 63.75 31.875 61.875 31.875H13.125C13.125 31.875 11.25 31.875 11.25 33.75V41.25C11.25 41.25 11.25 45 15 45Z" stroke="#031726" stroke-width="2"/>
  <path d="M18.75 55.5C20.8211 55.5 22.5 53.8211 22.5 51.75C22.5 49.6789 20.8211 48 18.75 48C16.6789 48 15 49.6789 15 51.75C15 53.8211 16.6789 55.5 18.75 55.5Z" fill="#031726"/>
  <path d="M56.25 55.5C58.3211 55.5 60 53.8211 60 51.75C60 49.6789 58.3211 48 56.25 48C54.1789 48 52.5 49.6789 52.5 51.75C52.5 53.8211 54.1789 55.5 56.25 55.5Z" fill="#031726"/>
  <path d="M60 32.25L54.1699 23.25C54.1699 23.25 52.7699 20.25 48.5199 20.25H26.3499C26.3499 20.25 22.0499 20.25 20.7749 23.25L15 32.25" stroke="#031726" stroke-width="2"/>
  <path d="M60 32.25L60 45" stroke="#031726" stroke-width="2"/>
  <path d="M15 32.25L15 45" stroke="#031726" stroke-width="2"/>
  <path d="M26.25 31.875V24.375" stroke="#031726" stroke-width="2"/>
  <path d="M48.75 31.875V24.375" stroke="#031726" stroke-width="2"/>
  <path d="M22.5 48H52.5" stroke="#031726" stroke-width="2"/>
</svg> 